# xmcd CD database file
# Copyright (C) 1995-1998 Ti Kan
#
# Track frame offsets:
#	222
#	11617
#	22090
#	28882
#	39540
#	51602
#	62425
#	71150
#	81530
#	93397
#	103827
#	112630
#	121352
#	132532
#
# Disc length: 1896 seconds
#
# Revision: 1
# Processed by: cddbd v1.4PL0 Copyright (c) Steve Scherf et al.
# Submitted via: CDex 1.30Release
#
DISCID=c907660e
DTITLE=Waylon Jennings - Outlaw Country
DYEAR=1996
DGENRE=Country
TTITLE0=Sally was a good old girl
TTITLE1=Lorena
TTITLE2=It's so easy
TTITLE3=Burning memories
TTITLE4=Don't think twice
TTITLE5=Dream baby
TTITLE6=Love's gonna live here
TTITLE7=Money (that's what I want)
TTITLE8=Crying
TTITLE9=White lightning
TTITLE10=Abilene
TTITLE11=Jole Blon
TTITLE12=Big Mamou
TTITLE13=When sin stops
EXTD=YEAR: 1996 ID3G:   2
EXTT0=
EXTT1=
EXTT2=
EXTT3=
EXTT4=
EXTT5=
EXTT6=
EXTT7=
EXTT8=
EXTT9=
EXTT10=
EXTT11=
EXTT12=
EXTT13=
PLAYORDER=
